<?xml version="1.0" encoding="utf-8"?>
<svg xmlns="http://www.w3.org/2000/svg" viewBox="1 1 512 512" width="512px" height="512px" xmlns:bx="https://boxy-svg.com"><defs><bx:export><bx:file format="svg"/></bx:export></defs><g transform="matrix(2.909090995788574, 0, 0, 2.909090995788574, -150.51132202148438, -153.2312774658203)" id="object-0"><g><path d="M225.656,166.222c1.339,0 2.426,-1.087 2.426,-2.426l0,-4.852c0,-1.338 -1.087,-2.425 -2.426,-2.425l-171.148,0c-1.339,0 -2.426,1.087 -2.426,2.425l0,4.852c0,1.339 1.087,2.426 2.426,2.426l171.148,0Z" style="fill:#8c8c8c;"/><path d="M225.656,125.516c1.339,0 2.426,-1.087 2.426,-2.426l0,-4.851c0,-1.339 -1.087,-2.426 -2.426,-2.426l-171.148,0c-1.339,0 -2.426,1.087 -2.426,2.426l0,4.851c0,1.339 1.087,2.426 2.426,2.426l171.148,0Z" style="fill:#8c8c8c;"/><path d="M225.656,145.869c1.339,0 2.426,-1.087 2.426,-2.426l0,-4.851c0,-1.339 -1.087,-2.426 -2.426,-2.426l-171.148,0c-1.339,0 -2.426,1.087 -2.426,2.426l0,4.851c0,1.339 1.087,2.426 2.426,2.426l171.148,0Z" style="fill:#8c8c8c;"/><path d="M225.656,105.163c1.339,0 2.426,-1.086 2.426,-2.425l0,-4.852c0,-1.339 -1.087,-2.426 -2.426,-2.426l-171.148,0c-1.339,0 -2.426,1.087 -2.426,2.426l0,4.852c0,1.339 1.087,2.425 2.426,2.425l171.148,0Z" style="fill:#8c8c8c;"/><path d="M225.656,186.574c1.339,0 2.426,-1.087 2.426,-2.425l0,-4.852c0,-1.339 -1.087,-2.426 -2.426,-2.426l-171.148,0c-1.339,0 -2.426,1.087 -2.426,2.426l0,4.852c0,1.338 1.087,2.425 2.426,2.425l171.148,0Z" style="fill:#8c8c8c;"/><path d="M114.878,226.592c0,1.338 1.087,2.425 2.425,2.425l4.852,0c1.339,0 2.426,-1.087 2.426,-2.425l0,-171.149c0,-1.339 -1.087,-2.426 -2.426,-2.426l-4.852,0c-1.338,0 -2.425,1.087 -2.425,2.426l0,171.149Z" style="fill:#8c8c8c;"/><path d="M155.583,226.592c0,1.338 1.087,2.425 2.426,2.425l4.851,0c1.339,0 2.426,-1.087 2.426,-2.425l0,-171.149c0,-1.339 -1.087,-2.426 -2.426,-2.426l-4.851,0c-1.339,0 -2.426,1.087 -2.426,2.426l0,171.149Z" style="fill:#8c8c8c;"/><path d="M135.23,226.592c0,1.338 1.087,2.425 2.426,2.425l4.852,0c1.338,0 2.425,-1.087 2.425,-2.425l0,-171.149c0,-1.339 -1.087,-2.426 -2.425,-2.426l-4.852,0c-1.339,0 -2.426,1.087 -2.426,2.426l0,171.149Z" style="fill:#8c8c8c;"/><path d="M175.936,226.592c0,1.338 1.087,2.425 2.426,2.425l4.851,0c1.339,0 2.426,-1.087 2.426,-2.425l0,-171.149c0,-1.339 -1.087,-2.426 -2.426,-2.426l-4.851,0c-1.339,0 -2.426,1.087 -2.426,2.426l0,171.149Z" style="fill:#8c8c8c;"/><path d="M94.525,226.592c0,1.338 1.087,2.425 2.426,2.425l4.851,0c1.339,0 2.426,-1.087 2.426,-2.425l0,-171.149c0,-1.339 -1.087,-2.426 -2.426,-2.426l-4.851,0c-1.339,0 -2.426,1.087 -2.426,2.426l0,171.149Z" style="fill:#8c8c8c;"/></g><path d="M189.069,210.998c11.587,0 20.994,-9.407 20.994,-20.994l0,-97.973c0,-11.587 -9.407,-20.995 -20.994,-20.995l-97.974,0c-11.587,0 -20.994,9.408 -20.994,20.995l0,97.973c0,11.587 9.407,20.994 20.994,20.994l97.974,0Z" style="fill:#333;"/><path d="M 105.753 177.572 C 105.142 177.572 104.637 177.367 104.248 176.954 C 103.855 176.541 103.662 176.012 103.662 175.363 L 103.662 169.268 C 99.36 168.678 95.767 167.529 92.892 165.821 C 90.012 164.112 87.849 162.035 86.397 159.59 C 84.945 157.147 84.162 154.57 84.051 151.859 C 84.051 151.388 84.233 150.962 84.594 150.578 C 84.958 150.196 85.393 150.004 85.89 150.004 L 96.456 150.004 C 97.233 150.004 97.819 150.151 98.215 150.444 C 98.604 150.74 98.993 151.123 99.387 151.595 C 99.834 152.478 100.459 153.332 101.272 154.157 C 102.08 154.981 103.143 155.644 104.455 156.145 C 105.769 156.645 107.403 156.898 109.359 156.898 C 112.6 156.898 115.042 156.367 116.691 155.305 C 118.339 154.246 119.162 152.802 119.162 150.976 C 119.162 149.68 118.715 148.605 117.82 147.752 C 116.929 146.896 115.489 146.131 113.508 145.453 C 111.523 144.777 108.883 144.083 105.588 143.377 C 101.339 142.435 97.724 141.213 94.733 139.71 C 91.748 138.208 89.468 136.235 87.907 133.79 C 86.339 131.345 85.561 128.297 85.561 124.644 C 85.561 119.933 87.166 115.926 90.379 112.627 C 93.589 109.328 98.018 107.267 103.662 106.442 L 103.662 100.256 C 103.662 99.609 103.855 99.079 104.248 98.666 C 104.637 98.254 105.142 98.048 105.753 98.048 L 112.709 98.048 C 113.267 98.048 113.758 98.254 114.177 98.666 C 114.594 99.079 114.806 99.609 114.806 100.256 L 114.806 106.619 C 118.66 107.327 121.901 108.592 124.525 110.419 C 127.152 112.243 129.147 114.306 130.517 116.603 C 131.886 118.902 132.599 121.11 132.656 123.231 C 132.656 123.702 132.487 124.129 132.152 124.511 C 131.818 124.896 131.397 125.087 130.896 125.087 L 119.833 125.087 C 119.219 125.087 118.689 124.968 118.241 124.733 C 117.795 124.496 117.402 124.115 117.069 123.585 C 116.734 122.289 115.839 121.155 114.386 120.182 C 112.935 119.211 111.061 118.725 108.773 118.725 C 106.369 118.725 104.469 119.181 103.075 120.093 C 101.676 121.007 100.978 122.405 100.978 124.292 C 100.978 125.47 101.354 126.501 102.109 127.383 C 102.863 128.266 104.132 129.033 105.921 129.681 C 107.71 130.329 110.142 131.006 113.214 131.714 C 118.296 132.715 122.403 133.967 125.533 135.469 C 128.661 136.971 130.95 138.915 132.404 141.299 C 133.854 143.686 134.582 146.676 134.582 150.269 C 134.582 153.745 133.757 156.808 132.11 159.459 C 130.463 162.11 128.157 164.259 125.196 165.909 C 122.234 167.558 118.772 168.648 114.806 169.178 L 114.806 175.363 C 114.806 176.012 114.594 176.541 114.177 176.954 C 113.758 177.367 113.267 177.572 112.709 177.572 L 105.753 177.572 Z" style="fill: rgb(255, 255, 255); text-transform: capitalize; text-wrap-mode: nowrap;"/><path d="M 139.152 175.397 C 138.523 175.397 138.006 175.183 137.604 174.753 C 137.205 174.323 137.004 173.822 137.004 173.251 L 137.004 165.171 C 137.004 164.542 137.205 164.025 137.604 163.623 C 138.006 163.223 138.523 163.023 139.152 163.023 L 190.2 163.023 C 190.774 163.023 191.274 163.223 191.705 163.623 C 192.132 164.025 192.348 164.542 192.348 165.171 L 192.348 173.251 C 192.348 173.822 192.132 174.323 191.705 174.753 C 191.274 175.183 190.774 175.397 190.2 175.397 L 139.152 175.397 Z" style="fill: rgb(255, 255, 255); text-transform: capitalize; text-wrap-mode: nowrap;"/><path d="M 105.536 180.4 C 104.763 180.383 104.012 180.107 103.506 179.602 C 103.001 179.096 102.726 178.346 102.709 177.572 L 102.709 171.586 C 98.079 170.94 94.246 169.775 91 167.954 C 87.758 166.121 85.256 163.853 83.606 161.219 C 81.959 158.591 81.059 155.728 80.923 152.808 C 80.945 152.209 81.208 151.571 81.674 151.104 C 82.145 150.634 82.816 150.372 83.471 150.353 L 95.202 150.353 C 96.129 150.36 96.926 150.562 97.448 150.911 C 97.907 151.242 98.384 151.685 98.837 152.2 L 98.875 152.243 L 98.901 152.294 C 99.375 153.189 100.026 154.026 100.902 154.868 C 101.756 155.702 102.847 156.346 104.263 156.853 C 105.673 157.369 107.403 157.615 109.539 157.615 C 113.089 157.615 115.674 157.098 117.426 156.012 C 119.172 154.979 119.932 153.672 119.932 151.877 C 119.932 150.612 119.538 149.665 118.606 148.849 C 117.669 147.987 116.161 147.236 113.994 146.534 C 111.807 145.825 108.899 145.102 105.247 144.359 C 100.505 143.36 96.43 142.053 93.078 140.458 C 89.707 138.843 87.069 136.684 85.292 134.049 C 83.508 131.406 82.599 128.046 82.599 124.133 C 82.599 119.07 84.479 114.671 88.103 111.113 C 91.745 107.588 96.574 105.45 102.709 104.522 L 102.709 98.437 C 102.726 97.664 103.001 96.914 103.506 96.408 C 104.012 95.903 104.763 95.627 105.536 95.61 L 113.263 95.61 C 113.976 95.628 114.69 95.912 115.234 96.396 C 115.76 96.917 116.072 97.658 116.091 98.437 L 116.091 104.723 C 120.24 105.494 123.698 106.777 126.665 108.727 C 129.62 110.681 131.919 112.925 133.47 115.395 C 135.022 117.865 135.846 120.335 135.921 122.643 C 135.902 123.235 135.65 123.855 135.231 124.332 C 134.774 124.796 134.124 125.078 133.466 125.099 L 121.177 125.099 C 120.443 125.094 119.741 124.943 119.184 124.673 C 118.629 124.385 118.099 123.896 117.689 123.293 L 117.642 123.225 L 117.623 123.148 C 117.299 121.876 116.413 120.827 114.857 119.854 C 113.318 118.861 111.373 118.395 108.888 118.395 C 106.274 118.395 104.296 118.832 102.82 119.763 C 101.358 120.629 100.729 121.891 100.729 123.761 C 100.729 124.912 101.067 125.831 101.858 126.685 C 102.634 127.566 103.943 128.3 105.885 128.967 C 107.853 129.644 110.521 130.349 113.921 131.091 C 119.593 132.152 124.205 133.488 127.715 135.083 C 131.244 136.698 133.895 138.839 135.563 141.412 C 137.208 143.999 138.062 147.284 138.062 151.132 C 138.062 154.862 137.096 158.227 135.234 161.088 C 133.36 163.932 130.707 166.281 127.369 168.053 C 124.034 169.81 120.359 170.907 116.091 171.493 L 116.091 177.572 C 116.072 178.351 115.76 179.093 115.234 179.614 C 114.69 180.098 113.977 180.382 113.263 180.4 Z M 113.263 179.4 C 113.791 179.418 114.164 179.268 114.552 178.882 C 114.957 178.535 115.11 178.159 115.091 177.572 L 115.091 170.614 L 115.528 170.559 C 119.895 170.009 123.657 168.888 126.901 167.169 C 130.143 165.465 132.611 163.283 134.398 160.54 C 136.197 157.816 137.062 154.726 137.062 151.132 C 137.062 147.408 136.303 144.393 134.721 141.952 C 133.161 139.498 130.723 137.543 127.301 135.993 C 123.859 134.423 119.355 133.122 113.73 132.073 C 110.306 131.325 107.563 130.601 105.559 129.913 C 103.529 129.215 102.014 128.335 101.114 127.354 C 100.229 126.346 99.729 125.092 99.729 123.761 C 99.729 121.658 100.652 119.971 102.294 118.913 C 103.921 117.92 106.163 117.395 108.888 117.395 C 111.492 117.395 113.705 117.954 115.393 119.01 C 117.065 120.085 118.124 121.375 118.563 122.802 C 118.883 123.279 119.193 123.571 119.631 123.779 C 120.068 124.006 120.546 124.104 121.177 124.099 L 133.466 124.099 C 133.925 124.12 134.207 123.998 134.495 123.654 C 134.82 123.325 134.94 123.044 134.921 122.643 C 134.872 120.483 134.114 118.299 132.624 115.927 C 131.134 113.556 128.995 111.455 126.115 109.561 C 123.249 107.663 119.744 106.366 115.505 105.634 L 115.091 105.562 L 115.091 98.437 C 115.11 97.851 114.957 97.475 114.552 97.128 C 114.164 96.742 113.791 96.592 113.263 96.61 L 105.536 96.61 C 104.944 96.593 104.577 96.752 104.214 97.116 C 103.851 97.478 103.692 97.845 103.709 98.437 L 103.709 105.39 L 103.278 105.449 C 97.075 106.3 92.296 108.403 88.801 111.829 C 85.288 115.223 83.599 119.265 83.599 124.133 C 83.599 127.916 84.428 130.98 86.12 133.489 C 87.819 136.006 90.239 138.006 93.508 139.556 C 96.798 141.126 100.759 142.394 105.451 143.38 C 109.123 144.127 112.082 144.863 114.302 145.582 C 116.542 146.308 118.23 147.171 119.278 148.109 C 120.332 149.093 120.932 150.411 120.932 151.877 C 120.932 153.93 119.861 155.664 117.946 156.866 C 116.035 158.015 113.189 158.615 109.539 158.615 C 107.331 158.615 105.431 158.334 103.923 157.793 C 102.422 157.246 101.154 156.492 100.208 155.588 C 99.284 154.692 98.567 153.783 98.047 152.816 C 97.645 152.359 97.276 152.015 96.867 151.725 C 96.519 151.455 96.013 151.346 95.202 151.353 L 83.471 151.353 C 83.009 151.334 82.718 151.475 82.382 151.812 C 82.041 152.152 81.901 152.414 81.923 152.808 C 82.035 155.597 82.873 158.165 84.454 160.689 C 86.032 163.207 88.34 165.315 91.49 167.082 C 94.637 168.861 98.534 170.041 103.273 170.653 L 103.709 170.709 L 103.709 177.572 C 103.692 178.165 103.851 178.532 104.214 178.894 C 104.577 179.258 104.944 179.417 105.536 179.4 Z M 141.741 177.793 C 140.962 177.774 140.221 177.461 139.699 176.936 C 139.216 176.393 138.932 175.679 138.914 174.966 L 138.914 166.214 C 138.931 165.441 139.222 164.705 139.712 164.184 C 140.233 163.694 140.968 163.404 141.741 163.387 L 197.043 163.387 C 197.756 163.405 198.47 163.689 199.013 164.173 C 199.539 164.694 199.851 165.435 199.87 166.214 L 199.87 174.966 C 199.85 175.685 199.557 176.418 199.026 176.949 C 198.495 177.48 197.762 177.773 197.043 177.793 Z M 197.043 176.793 C 197.565 176.813 197.919 176.641 198.318 176.241 C 198.718 175.842 198.89 175.488 198.87 174.966 L 198.87 166.214 C 198.889 165.627 198.736 165.252 198.331 164.903 C 197.943 164.519 197.571 164.369 197.043 164.387 L 141.741 164.387 C 141.149 164.37 140.767 164.514 140.419 164.892 C 140.041 165.24 139.897 165.622 139.914 166.214 L 139.914 174.966 C 139.896 175.494 140.046 175.866 140.43 176.254 C 140.779 176.659 141.154 176.812 141.741 176.793 Z" style="fill: none;"/></g></svg>